<svg width="48" height="48" viewBox="0 0 48 48" fill="none" xmlns="http://www.w3.org/2000/svg">
<circle cx="24" cy="24" r="24" fill="#F3F4F4"/>
<path fill-rule="evenodd" clip-rule="evenodd" d="M27 20C27 21.6569 25.6569 23 24 23C22.3431 23 21 21.6569 21 20C21 18.3431 22.3431 17 24 17C25.6569 17 27 18.3431 27 20ZM27.4013 23.6649C28.3847 22.7518 29 21.4478 29 20C29 17.2386 26.7614 15 24 15C21.2386 15 19 17.2386 19 20C19 21.4478 19.6153 22.7518 20.5987 23.6649C17.3143 25.0065 15 28.233 15 32C15 32.5523 15.4477 33 16 33C16.5523 33 17 32.5523 17 32C17 28.134 20.134 25 24 25C27.866 25 31 28.134 31 32C31 32.5523 31.4477 33 32 33C32.5523 33 33 32.5523 33 32C33 28.233 30.6857 25.0065 27.4013 23.6649Z" fill="#A8741A"/>
</svg>
